<svg width="140" height="100" viewBox="0 0 140 100" fill="none" xmlns="http://www.w3.org/2000/svg">
<path d="M0.0166016 79.5293H2.60679V96.9179H4.65485V79.5293H7.10736V96.9179H9.15542V79.5293H11.7542V99.5039H0.0166016V79.5293Z" fill="#24180D"/>
<path d="M19.447 87.27L24.0078 99.5039H21.1164L17.6743 90.045L17.1838 91.1446V99.5039H14.585V79.5293H17.1838V86.3164L20.8152 79.5293H23.6205L19.447 87.27Z" fill="#24180D"/>
<path d="M27.554 99.5039C26.9 99.5039 26.3321 99.2719 25.8588 98.7994C25.3855 98.3269 25.1445 97.7599 25.1445 97.107V81.9263C25.1445 81.2733 25.3769 80.7063 25.8588 80.2338C26.3321 79.7613 26.8914 79.5293 27.554 79.5293H30.2819C30.9359 79.5293 31.5038 79.7613 31.9771 80.2338C32.4504 80.7063 32.6828 81.2733 32.6828 81.9263V97.107C32.6828 97.7599 32.4504 98.3269 31.9771 98.7994C31.5038 99.2719 30.9359 99.5039 30.2819 99.5039H27.554ZM27.7433 96.3681C27.7433 96.5485 27.8036 96.7032 27.9154 96.8149C28.0359 96.9351 28.1822 96.9953 28.3629 96.9953H29.4558C29.6365 96.9953 29.7828 96.9351 29.9033 96.8149C30.0237 96.6946 30.084 96.5485 30.084 96.3681V82.6651C30.084 82.4847 30.0237 82.33 29.9033 82.2184C29.7828 82.0981 29.6365 82.0379 29.4558 82.0379H28.3629C28.1822 82.0379 28.0273 82.0981 27.9154 82.2184C27.795 82.3386 27.7433 82.4847 27.7433 82.6651V96.3681Z" fill="#24180D"/>
<path d="M39.807 82.1246H38.1203C38.0859 84.2896 38.0515 86.1281 38.0084 87.6402C37.974 89.1608 37.9396 90.4495 37.8966 91.5062C37.8621 92.5716 37.8191 93.4479 37.7761 94.1352C37.7331 94.8225 37.6814 95.4238 37.6298 95.9307C37.561 96.661 37.4405 97.2538 37.2856 97.7263C37.1307 98.1988 36.9242 98.5596 36.6746 98.8174C36.4165 99.0751 36.1067 99.2469 35.7452 99.35C35.3838 99.4531 34.9449 99.4961 34.4372 99.4961H34.0586V96.9101H34.3856C34.5147 96.9101 34.6265 96.8929 34.7298 96.8586C34.8245 96.8242 34.9105 96.7383 34.9708 96.6008C35.031 96.4634 35.0912 96.2744 35.1515 96.0252C35.2031 95.7761 35.2547 95.441 35.2892 95.0029C35.358 94.2211 35.4441 92.5801 35.5473 90.0801C35.6506 87.5801 35.7108 84.0662 35.728 79.5215H42.4144V99.5047H39.8242V82.1246H39.807Z" fill="#24180D"/>
<path d="M49.6612 94.3331H47.5873L46.985 99.5137H44.498L47.0882 79.5391H50.2292L52.8624 99.5051H50.3238L49.6612 94.3331ZM47.8885 91.8245H49.36L48.62 85.6646L47.8885 91.8245Z" fill="#24180D"/>
<path d="M65.5292 87.27L70.09 99.5039H67.1986L63.7565 90.0536L63.266 91.1446V99.5039H60.6758V79.5293H63.266V86.3164L66.8974 79.5293H69.7113L65.5292 87.27Z" fill="#24180D"/>
<path d="M71.5098 79.5293H77.5163V82.1238H74.1V88.2494H77.5163V90.758H74.1V96.9179H77.5163V99.5039H71.5098V79.5293Z" fill="#24180D"/>
<path d="M82.3441 90.6807V99.5039H79.7539V79.5293H84.8827C85.5367 79.5293 86.1046 79.7613 86.5779 80.2338C87.0512 80.7063 87.2836 81.2647 87.2836 81.9262V88.2752C87.2836 88.9281 87.0512 89.4951 86.5779 89.9676C86.1046 90.4402 85.5367 90.6721 84.8827 90.6721H82.3441V90.6807ZM82.3441 82.0379V88.1721H84.0652C84.2459 88.1721 84.4008 88.1119 84.5127 87.9917C84.6331 87.8714 84.6934 87.7253 84.6934 87.5449V82.6651C84.6934 82.4847 84.6331 82.33 84.5127 82.2183C84.3922 82.0981 84.2459 82.0379 84.0652 82.0379H82.3441Z" fill="#24180D"/>
<path d="M93.0753 94.3312H91.0014L90.399 99.5117H87.9121L90.5023 79.5371H93.6432L96.2679 99.5117H93.7293L93.0753 94.3312ZM91.3026 91.8225H92.7741L92.034 85.6626L91.3026 91.8225Z" fill="#24180D"/>
<path d="M103.254 89.203L105.354 79.5293H108.082V99.5039H105.569V91.3594L105.681 87.5449H105.655L103.908 96.2392H102.54L100.793 87.5449H100.767L100.879 91.3594V99.5039H98.3662V79.5293H101.094L103.254 89.203Z" fill="#24180D"/>
<path d="M116.137 79.5293H118.589V99.5039H115.999V91.8491L116.111 87.7339H116.085L113.383 99.5039H110.922V79.5293H113.521V87.1927L113.409 91.2993H113.435L116.137 79.5293Z" fill="#24180D"/>
<path d="M126.015 87.27L130.576 99.5039H127.685L124.243 90.0535L123.752 91.1446V99.5039H121.162V79.5293H123.752V86.3164L127.384 79.5293H130.198L126.015 87.27Z" fill="#24180D"/>
<path d="M137.211 79.5293H139.663V99.5039H137.073V91.8491L137.176 87.7339H137.151L134.449 99.5039H131.996V79.5293H134.586V87.1927L134.474 91.2993H134.5L137.211 79.5293Z" fill="#24180D"/>
<path d="M73.5918 3.51562H77.9805V5.5002H75.4936V18.7908H73.6004L73.5918 3.51562Z" fill="#24180D"/>
<path d="M80.8551 18.792C80.3732 18.792 79.9687 18.6116 79.6159 18.2508C79.2717 17.8899 79.0996 17.4604 79.0996 16.9621V5.35532C79.0996 4.85703 79.2717 4.42747 79.6159 4.06664C79.9601 3.70581 80.3732 3.52539 80.8551 3.52539H82.8515C83.3334 3.52539 83.7379 3.70581 84.0907 4.06664C84.4349 4.42747 84.607 4.85703 84.607 5.35532V16.9621C84.607 17.4604 84.4349 17.8899 84.0907 18.2508C83.7465 18.6116 83.3334 18.792 82.8515 18.792H80.8551ZM80.9928 16.395C80.9928 16.5325 81.0358 16.6528 81.1219 16.7387C81.2079 16.8332 81.3198 16.8762 81.4488 16.8762H82.2491C82.3782 16.8762 82.4901 16.8332 82.5761 16.7387C82.6622 16.6528 82.7052 16.5325 82.7052 16.395V5.91375C82.7052 5.77629 82.6622 5.66461 82.5761 5.5701C82.4901 5.4756 82.3782 5.43264 82.2491 5.43264H81.4488C81.3112 5.43264 81.2079 5.4756 81.1219 5.5701C81.0358 5.66461 80.9928 5.77629 80.9928 5.91375V16.395Z" fill="#24180D"/>
<path d="M90.1226 12.1068L88.5736 12.0983V18.7908H86.6805L86.6719 3.51562H88.5736V10.1824H90.1226V3.51562H92.0158L92.0244 18.7908H90.1312L90.1226 12.1068Z" fill="#24180D"/>
<path d="M97.1023 12.3142H95.5104C95.0285 12.3142 94.624 12.1338 94.2712 11.773C93.927 11.4121 93.7549 10.9826 93.7549 10.4843V3.52539H95.648V9.91726C95.648 10.0547 95.6911 10.175 95.7771 10.2609C95.8632 10.3554 95.9751 10.3984 96.1041 10.3984H97.1023V3.52539H98.9955V18.8006H97.1023V12.3142Z" fill="#24180D"/>
<path d="M104.305 14.8303H102.791L102.352 18.7908H100.536L102.429 3.51562H104.727L106.646 18.7908H104.787L104.305 14.8303ZM103.006 12.9144H104.082L103.539 8.20643L103.006 12.9144Z" fill="#24180D"/>
<path d="M110.07 12.0381V18.7908H108.177V3.51562H111.929C112.411 3.51562 112.824 3.69604 113.168 4.05687C113.512 4.4177 113.684 4.84726 113.684 5.34555V10.1996C113.684 10.6979 113.512 11.1274 113.168 11.4883C112.824 11.8491 112.411 12.0295 111.929 12.0295L110.07 12.0381ZM110.07 5.44006V10.1309H111.326C111.464 10.1309 111.567 10.0879 111.653 9.99341C111.739 9.90749 111.782 9.78722 111.782 9.64976V5.92117C111.782 5.78371 111.739 5.66343 111.653 5.57752C111.567 5.48301 111.455 5.44006 111.326 5.44006H110.07Z" fill="#24180D"/>
<path d="M118.96 12.1068H117.403L117.412 18.7908H115.51V3.51562L117.403 3.52422V10.191H118.96V3.52422H120.854V18.7908H118.96V12.1068Z" fill="#24180D"/>
<path d="M122.927 18.7908V3.51562H124.82V9.90749H126.61C127.083 9.90749 127.496 10.0879 127.849 10.4487C128.193 10.8096 128.365 11.2391 128.365 11.7374V16.9437C128.365 17.442 128.193 17.8716 127.849 18.2324C127.505 18.5932 127.092 18.7736 126.618 18.7736L122.927 18.7908ZM124.82 11.8319V16.875H126.016C126.145 16.875 126.257 16.832 126.343 16.7375C126.429 16.6516 126.472 16.5313 126.472 16.3939V12.313C126.472 12.1756 126.429 12.0639 126.343 11.9694C126.257 11.8749 126.145 11.8319 126.016 11.8319H124.82ZM131.825 18.7908H129.931V3.51562H131.825V18.7908Z" fill="#24180D"/>
<path d="M137.702 3.52385H139.5V18.7991H137.607V12.9484L137.685 9.80404H137.668L135.697 18.8076H133.898V3.53245H135.792V9.39166L135.714 12.536H135.731L137.702 3.52385ZM134.716 0.955078H138.743V2.45854H134.716V0.955078Z" fill="#24180D"/>
<path d="M92.9542 37.1584L96.4307 42.3389C96.8868 43.0004 97.3429 43.2839 97.8248 43.1808L98.2636 43.0691L102.816 42.0382C103.814 41.8148 104.391 42.0554 104.537 42.7684C104.64 43.2925 104.554 43.7393 104.262 44.1001C103.969 44.4695 103.504 44.7187 102.859 44.8733L97.842 46.0073C96.4651 46.3166 95.3636 45.8527 94.5461 44.607L89.753 37.4075L89.0732 41.4884C88.7462 43.4472 88.5052 44.7702 88.3417 45.4747C88.1782 46.1792 87.9631 46.8321 87.6877 47.4592C86.7067 49.7273 85.1664 51.1019 83.0581 51.583C81.5263 51.9353 80.1839 51.7119 79.0222 50.9301C77.8605 50.1483 77.1204 48.9369 76.7762 47.3132C76.3373 45.1998 76.6988 43.1636 77.8605 41.222C78.4887 40.1825 79.3578 39.2632 80.4593 38.4556C81.5608 37.6567 82.7053 37.1154 83.8928 36.8491C84.4607 36.7202 84.9512 36.746 85.3557 36.9436C85.7601 37.1326 86.0097 37.4419 86.1044 37.88C86.199 38.3526 86.0871 38.7649 85.7774 39.1344C85.588 39.3491 85.1922 39.5553 84.5898 39.7615C83.1613 40.2254 82.0685 40.8354 81.3112 41.5914C80.6658 42.2272 80.2097 42.966 79.9344 43.808C79.659 44.6499 79.6074 45.4747 79.7795 46.2908C79.9602 47.15 80.3044 47.7771 80.8293 48.1809C81.3542 48.5847 81.9738 48.705 82.688 48.5417C83.5744 48.3441 84.2628 47.7771 84.7447 46.8493C85.2266 45.9214 85.6569 44.375 86.0183 42.2014L87.7652 31.6428L86.6465 31.9005C85.6483 32.1325 85.0717 31.8834 84.9168 31.1617C84.8136 30.6376 84.8996 30.1995 85.1922 29.8301C85.4762 29.4692 85.9495 29.2115 86.5862 29.0654L90.2005 28.2407C91.1471 28.0259 91.8441 27.9314 92.3088 27.94C92.7735 27.9486 93.2381 28.0946 93.72 28.361C94.7183 28.9022 95.355 29.8472 95.6304 31.1789C95.88 32.3902 95.7595 33.5501 95.2776 34.6497C94.7785 35.7322 94.004 36.5742 92.9542 37.1584ZM90.0542 35.569L90.364 35.4745C91.1815 35.2339 91.758 34.9247 92.1108 34.5552C92.7821 33.8422 93.023 33.026 92.8337 32.1153C92.6186 31.0672 92.0334 30.6548 91.0696 30.8696L90.8287 30.9211L90.0542 35.569Z" fill="#24180D"/>
<path d="M101.74 32.5886C102.79 32.348 103.728 32.5027 104.554 33.0439C105.381 33.5852 105.897 34.3927 106.121 35.4752C106.293 36.2828 106.275 37.1333 106.095 38.0096C105.905 38.8945 105.578 39.6334 105.114 40.2434C104.804 40.6386 104.451 40.9478 104.073 41.154C103.694 41.3602 103.143 41.5492 102.42 41.7125C101.233 41.9788 100.407 42.0132 99.9334 41.8156C98.8147 41.3344 98.1177 40.4152 97.8337 39.0492C97.5325 37.6059 97.7735 36.2484 98.5479 34.9683C99.3138 33.6883 100.381 32.8979 101.74 32.5886ZM101.981 35.0714C101.448 35.1917 101.009 35.5783 100.682 36.2313C100.355 36.8842 100.26 37.5457 100.398 38.2158C100.579 39.0921 101.147 39.4272 102.093 39.2124C102.644 39.0921 103.031 38.8172 103.255 38.3877C103.625 37.6918 103.737 36.9701 103.573 36.2141C103.479 35.7845 103.289 35.458 102.997 35.2519C102.704 35.0457 102.36 34.9855 101.981 35.0714Z" fill="#24180D"/>
<path d="M114.003 39.0833L110.853 39.7964C109.941 40.0026 109.141 39.8394 108.427 39.2981C107.721 38.7569 107.256 37.9579 107.032 36.9012C106.74 35.4836 106.946 34.1434 107.669 32.8891C108.384 31.6261 109.382 30.8529 110.638 30.5694C111.499 30.3804 112.239 30.4663 112.884 30.8443C113.529 31.2224 113.934 31.8152 114.097 32.6141C114.218 33.1726 114.175 33.6709 113.986 34.0918C113.788 34.5128 113.486 34.7705 113.065 34.865C112.394 35.0197 111.998 34.7705 111.86 34.1176C111.843 34.0231 111.826 33.9372 111.808 33.8685C111.8 33.7825 111.783 33.7052 111.774 33.6279C111.662 33.0952 111.361 32.8891 110.853 33.0007C110.38 33.1124 110.01 33.4647 109.726 34.0746C109.451 34.6846 109.373 35.3118 109.511 35.9561C109.623 36.4974 109.855 36.841 110.225 36.9871C110.586 37.1417 111.146 37.1331 111.894 36.9613L113.951 36.4974C114.872 36.2912 115.405 36.5231 115.543 37.1933C115.638 37.6486 115.543 38.0438 115.268 38.3788C114.992 38.7311 114.571 38.9545 114.003 39.0833Z" fill="#24180D"/>
<path d="M121.894 32.2621L124.157 34.6419C124.441 34.934 124.604 35.1917 124.647 35.4151C124.725 35.7673 124.647 36.111 124.424 36.4546C124.2 36.7983 123.916 37.013 123.572 37.0904C123.27 37.1591 122.969 37.0474 122.677 36.7553L122.505 36.5835L119.157 33.2071L118.598 36.635C118.417 37.7347 117.944 38.3619 117.195 38.5423C116.885 38.611 116.601 38.5766 116.343 38.422C116.094 38.276 115.93 38.0526 115.87 37.7605C115.818 37.5457 115.827 37.2708 115.887 36.9615L115.947 36.6264L118.107 23.5678L118.159 23.2327C118.322 22.3049 118.761 21.7636 119.493 21.5918C119.794 21.5231 120.086 21.566 120.345 21.7378C120.611 21.9011 120.766 22.133 120.826 22.4251C120.878 22.6571 120.87 22.932 120.818 23.2499L120.766 23.585L119.475 31.36L121.532 28.9029C121.954 28.396 122.35 28.0953 122.711 28.018C123.012 27.9493 123.288 27.9923 123.537 28.1555C123.787 28.3187 123.942 28.5421 124.002 28.8514C124.105 29.3583 123.933 29.8823 123.486 30.4236L123.279 30.6727L121.894 32.2621Z" fill="#24180D"/>
<path d="M78.5144 61.3347L79.2545 61.1629C79.8224 61.034 80.1494 61.1801 80.2355 61.5925C80.2957 61.876 80.2355 62.1251 80.072 62.3313C79.9085 62.5375 79.6417 62.6836 79.2889 62.7609L78.4284 62.9585C78.0411 63.0444 77.7486 62.9499 77.542 62.6664C77.2753 63.053 76.9741 63.2935 76.6643 63.3623L75.8898 63.5341C75.3993 63.6458 74.9605 63.5513 74.5818 63.2506C74.2032 62.9499 73.945 62.5032 73.8246 61.9018C73.6438 60.9997 73.7643 60.1234 74.2204 59.2814C74.6679 58.4309 75.2702 57.924 76.0189 57.7522C76.5955 57.6233 77.0601 57.735 77.413 58.0958C77.5679 57.6921 77.826 57.4515 78.1874 57.3656C78.3854 57.3226 78.5661 57.3484 78.721 57.4515C78.8845 57.5546 78.9791 57.7006 79.0221 57.8896C79.048 58.0271 79.048 58.1903 79.0135 58.3879L78.9791 58.5941L78.5144 61.3347ZM76.0705 61.9189L76.2426 61.876C76.6127 61.7901 76.8192 61.5839 76.8794 61.2402L77.0946 59.9172C77.1204 59.7454 77.129 59.5993 77.1032 59.4962C77.0774 59.3673 76.9999 59.2728 76.8536 59.2041C76.7159 59.1354 76.561 59.1268 76.3975 59.1612C76.0705 59.2385 75.7952 59.5048 75.5628 59.9773C75.3391 60.4498 75.2702 60.8966 75.3563 61.3261C75.4682 61.8073 75.7005 62.0049 76.0705 61.9189Z" fill="#24180D"/>
<path d="M85.3635 59.7793L86.1724 59.5989C86.749 59.4701 87.076 59.6161 87.162 60.0285C87.2222 60.312 87.162 60.5612 86.9985 60.7673C86.8264 60.9735 86.5682 61.111 86.2068 61.1969L84.7955 61.5148C84.5202 61.5749 84.2706 61.5406 84.0469 61.4117C83.8231 61.2828 83.6855 61.0852 83.6338 60.8189C83.5994 60.6557 83.6166 60.4065 83.6769 60.0543L83.9522 58.3876C83.9866 58.2157 83.9866 58.0783 83.9694 57.9752C83.9522 57.8635 83.892 57.7776 83.7801 57.7175C83.6683 57.6573 83.5478 57.6487 83.4015 57.6745C82.9368 57.7776 82.6442 58.2329 82.5065 59.0233L82.1365 61.2484C82.0246 61.9272 81.7321 62.3138 81.2674 62.4254C81.0694 62.4684 80.8973 62.4426 80.7338 62.3567C80.5789 62.2622 80.4757 62.1333 80.4413 61.9529C80.4154 61.8241 80.4154 61.6608 80.4499 61.4546L80.4843 61.2484L81.1211 57.4339C81.1985 56.9357 81.4567 56.6436 81.8783 56.5405C82.2226 56.4631 82.5065 56.5662 82.7217 56.8497C83.1261 56.36 83.5392 56.0593 83.978 55.9563C84.3997 55.8618 84.7783 55.9047 85.0967 56.1023C85.4237 56.2913 85.6303 56.5834 85.7077 56.9786C85.7507 57.1934 85.7507 57.4425 85.7077 57.726L85.3635 59.7793Z" fill="#24180D"/>
<path d="M91.9135 58.2942L92.6793 58.1223C93.2559 57.9935 93.5829 58.1395 93.6689 58.5519C93.7292 58.8354 93.6689 59.0845 93.5054 59.2907C93.3333 59.4969 93.0752 59.643 92.7137 59.7203L91.8016 59.9265C91.4488 60.0124 91.1648 59.9179 90.9411 59.6516C90.7173 60.021 90.4333 60.2358 90.1063 60.3131L89.2458 60.5107C88.7467 60.6224 88.3078 60.5365 87.9378 60.2444C87.5678 59.9523 87.3182 59.5141 87.1891 58.9213C86.9998 58.0192 87.1289 57.1343 87.5678 56.2752C88.0066 55.4161 88.6004 54.9092 89.3319 54.7374C89.874 54.6085 90.3559 54.7202 90.7603 55.0553L91.466 50.8542C91.5865 50.1411 91.8704 49.7287 92.3351 49.6256C92.533 49.5826 92.7051 49.6084 92.8686 49.7029C93.0321 49.806 93.1354 49.9435 93.1698 50.1325C93.2043 50.2785 93.2043 50.4504 93.1698 50.648L93.1268 50.8542L91.9135 58.2942ZM89.4523 58.887L89.7105 58.8268C90.0203 58.7581 90.201 58.5777 90.244 58.3027L90.485 56.8852C90.5108 56.7134 90.5194 56.5845 90.5022 56.4986C90.4764 56.3611 90.3903 56.258 90.2526 56.1807C90.1149 56.112 89.9687 56.0948 89.7966 56.1292C89.4437 56.2151 89.1598 56.49 88.9446 56.9625C88.7295 57.4436 88.6693 57.9161 88.7639 58.3887C88.8414 58.8096 89.0737 58.9729 89.4523 58.887Z" fill="#24180D"/>
<path d="M113.744 55.4503L117.23 60.6308C117.686 61.3009 118.15 61.5845 118.624 61.4728L119.054 61.3611L123.606 60.3301C124.604 60.1068 125.181 60.3473 125.336 61.0604C125.439 61.5844 125.353 62.0312 125.06 62.4006C124.768 62.77 124.303 63.0278 123.658 63.1738L118.641 64.3165C117.264 64.6257 116.162 64.1618 115.336 62.9161L110.543 55.7166L109.863 59.8061C109.536 61.7649 109.295 63.0879 109.141 63.7924C108.977 64.4883 108.762 65.1584 108.487 65.777C107.506 68.045 105.965 69.4196 103.857 69.9008C102.325 70.253 100.983 70.0296 99.821 69.2478C98.6593 68.4574 97.9106 67.2547 97.575 65.6309C97.1362 63.5089 97.4976 61.4814 98.6593 59.5311C99.2875 58.4916 100.148 57.5723 101.25 56.7734C102.351 55.9658 103.495 55.4331 104.692 55.1668C105.26 55.0379 105.75 55.0723 106.155 55.2613C106.559 55.4503 106.809 55.7596 106.903 56.1977C106.998 56.6703 106.886 57.0912 106.568 57.4521C106.387 57.6583 105.982 57.8644 105.38 58.0792C103.96 58.5432 102.867 59.1531 102.101 59.9092C101.456 60.5449 101 61.2838 100.725 62.1257C100.449 62.9676 100.398 63.7924 100.57 64.6C100.75 65.4591 101.095 66.0862 101.62 66.49C102.136 66.8938 102.764 67.0141 103.478 66.8509C104.365 66.6533 105.053 66.0862 105.535 65.1584C106.025 64.2305 106.447 62.6841 106.809 60.5105L108.555 49.9519L107.437 50.2097C106.43 50.433 105.853 50.1839 105.707 49.4708C105.595 48.9468 105.69 48.5 105.974 48.1392C106.266 47.7784 106.722 47.5206 107.368 47.3746L110.982 46.5584C111.92 46.3436 112.626 46.2405 113.09 46.2577C113.555 46.2749 114.028 46.4123 114.502 46.6701C115.491 47.2113 116.128 48.1564 116.412 49.488C116.662 50.6994 116.55 51.8592 116.059 52.9589C115.577 54.0328 114.803 54.8747 113.744 55.4503ZM110.853 53.8695L111.163 53.775C111.98 53.5345 112.557 53.2252 112.91 52.8558C113.581 52.1427 113.822 51.3265 113.633 50.4159C113.417 49.3677 112.824 48.9554 111.868 49.1701L111.628 49.2217L110.853 53.8695Z" fill="#24180D"/>
<path d="M122.53 50.8874C123.58 50.6469 124.518 50.8015 125.344 51.3427C126.17 51.884 126.687 52.7001 126.91 53.7741C127.083 54.5816 127.065 55.4322 126.876 56.3085C126.687 57.1934 126.36 57.9322 125.895 58.5422C125.585 58.9374 125.232 59.2381 124.854 59.4529C124.475 59.659 123.924 59.8481 123.202 60.0113C122.014 60.2776 121.188 60.312 120.715 60.1144C119.596 59.6333 118.899 58.714 118.615 57.348C118.314 55.9047 118.555 54.5473 119.329 53.2672C120.112 51.9871 121.171 51.1967 122.53 50.8874ZM122.771 53.3703C122.229 53.4905 121.799 53.8772 121.472 54.5301C121.145 55.183 121.05 55.8445 121.188 56.5147C121.369 57.391 121.937 57.726 122.875 57.5112C123.425 57.3824 123.813 57.1075 124.036 56.6865C124.406 55.9906 124.518 55.2689 124.363 54.5129C124.277 54.0833 124.079 53.7569 123.787 53.5507C123.494 53.3445 123.159 53.2844 122.771 53.3703Z" fill="#24180D"/>
<path d="M130.963 55.6565L132.108 55.3987C133.029 55.1925 133.562 55.4159 133.7 56.0946C133.794 56.5585 133.708 56.9537 133.442 57.2888C133.175 57.6239 132.753 57.8472 132.168 57.9847L130.215 58.4314C129.681 58.5517 129.225 58.5173 128.864 58.3283C128.494 58.1307 128.261 57.8129 128.167 57.3661C128.123 57.1342 128.141 56.7132 128.244 56.1204L130.292 43.8092L130.352 43.4741C130.507 42.5549 130.955 42.005 131.686 41.8418C131.987 41.7731 132.271 41.816 132.529 41.9878C132.788 42.1511 132.951 42.383 133.011 42.6751C133.063 42.9071 133.063 43.1734 133.011 43.4827L132.96 43.8178L130.963 55.6565Z" fill="#24180D"/>
<path d="M136.893 54.315L138.038 54.0573C138.958 53.8425 139.492 54.0831 139.63 54.7618C139.724 55.2257 139.638 55.6209 139.371 55.9474C139.105 56.2738 138.674 56.5144 138.098 56.6433L136.136 57.09C135.602 57.2103 135.146 57.1759 134.785 56.9783C134.423 56.7807 134.191 56.4628 134.096 56.0161C134.045 55.7841 134.071 55.3718 134.165 54.779L136.213 42.4763L136.265 42.1413C136.428 41.2134 136.867 40.6722 137.599 40.5004C137.9 40.4316 138.184 40.4832 138.442 40.6464C138.7 40.8096 138.864 41.0416 138.924 41.3337C138.976 41.5657 138.976 41.832 138.924 42.1413L138.864 42.4763L136.893 54.315Z" fill="#24180D"/>
<path d="M64.0148 25.5267C62.0958 22.8033 59.2561 21.1538 59.7724 16.2224C60.0392 13.6193 61.8635 10.1141 62.8703 7.45939C63.1887 6.63464 63.8599 4.98512 63.5932 4.42669C63.1285 3.43011 58.8172 3.88544 57.0704 3.88544H39.3779C38.3022 3.88544 36.8909 3.65348 35.9874 3.8339C34.6191 3.64489 33.2337 3.5332 31.8224 3.5332C15.894 3.5332 2.70206 15.7585 0.370027 31.721C0.120474 33.3791 0 35.0716 0 36.7898C0 39.6593 0.344212 42.4429 0.998215 45.0975C4.52639 59.4449 16.9869 70.0379 31.8138 70.0379C35.2817 70.0379 38.6206 69.4451 41.7443 68.3712C41.7701 68.8867 41.8476 69.3506 42.0627 69.6599C46.4256 70.0207 52.1997 70.0207 56.554 69.6599C57.1134 68.8437 56.7692 67.0739 56.8638 65.768C63.705 61.5583 68.0335 55.0462 68.9801 45.1061C69.746 37.1077 67.1299 29.9426 64.0148 25.5267ZM30.4197 24.6676C32.0203 24.4872 33.5779 24.6504 35.0322 25.0714C34.8859 25.2518 34.7482 25.4408 34.6105 25.6298C34.3265 26.025 34.0598 26.446 33.793 26.8842C32.7604 26.6694 31.6761 26.6092 30.5488 26.7381C26.7367 27.202 24.2239 29.5131 22.9848 31.9272C22.4856 32.898 21.8919 33.7142 21.7456 36.3345C21.4186 42.1422 25.2738 46.3003 29.9034 47.1938C30.0153 47.9412 30.153 48.6543 30.3079 49.3588C24.31 48.6457 19.2673 43.4652 19.7578 36.0768C20.1536 30.0887 24.5853 25.3291 30.4197 24.6676ZM16.0317 60.9655C10.662 57.2713 6.6519 51.6097 4.8706 43.9893C2.84835 35.3723 4.81897 26.7982 8.71717 20.6555C9.43141 20.9047 9.84446 21.4631 10.4554 21.8239C7.84803 25.8532 5.74834 30.8791 5.73973 36.996C5.72252 47.632 11.3504 54.797 17.1504 59.2903C16.8922 59.9604 16.3845 60.3813 16.0317 60.9655ZM18.3895 57.4689C12.2626 53.2334 7.41777 45.3897 8.08898 34.9084C8.39877 30.0028 10.1543 26.3773 12.1851 22.8549C12.7444 23.2157 13.1489 23.7484 13.7943 24.0233C11.5655 27.8378 9.51746 32.2193 9.82725 38.027C10.2661 46.3776 14.6118 52.2626 19.5082 55.785C19.2501 56.4637 18.7337 56.8847 18.3895 57.4689ZM20.6183 53.9723C15.9026 50.8279 11.8237 44.5907 11.8065 36.9874C11.7979 32.3052 13.2952 28.4821 15.283 25.1917C15.894 25.5869 16.5996 25.8876 16.8922 26.6178C11.0062 34.1867 14.5344 48.9035 21.7284 52.2798C21.41 52.8898 20.9195 53.3279 20.6183 53.9723ZM22.3566 50.5959C18.6391 47.9412 15.653 42.9669 15.653 36.9874C15.653 33.276 16.9266 30.3464 18.51 27.6488C19.0952 27.9924 19.5082 28.5079 20.1192 28.8172C15.4207 34.7967 18.3465 45.9137 23.7162 48.9121C23.329 49.5392 23.0278 50.2609 22.3566 50.5959ZM59.7724 61.0085C58.4042 62.3831 56.7778 63.2508 54.9018 64.6855V67.7182C51.4167 67.8987 47.2087 67.8987 43.7149 67.7182V66.0945C45.0315 65.7079 50.3754 67.0567 50.341 65.012C50.3066 63.1735 44.7562 64.3333 43.1986 64.0412C41.641 63.7491 39.8167 62.0223 38.4399 60.5789C34.5417 56.5067 31.5298 50.2007 31.504 42.6233C31.4696 34.1695 34.7052 28.0526 38.9562 23.5765H46.2105C48.009 23.5765 52.3891 24.1779 52.5267 22.6057C52.6816 20.7328 48.3876 21.4115 46.83 21.4115H40.1007C42.3811 15.6726 38.7755 10.5265 37.4072 5.93875H61.2181C59.9875 10.1742 56.3819 15.3977 58.4214 21.0851C59.0582 22.8463 60.2543 24.1865 61.4246 25.6298C64.5828 29.5045 67.0955 35.3895 67.1213 42.3999C67.1558 50.5186 63.9116 56.8503 59.7724 61.0085Z" fill="#24180D"/>
<path d="M57.0788 26.0676C55.1942 26.7978 58.2577 29.3924 58.6278 29.8563C61.9924 33.9887 64.3073 40.6297 62.5604 47.7088C62.3539 48.5508 60.9942 51.3945 62.5604 51.6007C63.7737 51.7639 64.4191 48.9546 64.7375 47.3824C66.3553 39.3496 63.4037 32.4079 60.0735 28.3356C59.2387 27.3047 57.9996 25.7153 57.0788 26.0676Z" fill="#24180D"/>
<path d="M59.876 54.4097C59.3855 54.5558 56.9244 57.4171 57.0793 58.199C57.1567 58.5771 57.6386 58.9638 58.1119 58.9552C58.8262 58.938 59.4371 57.8553 59.876 57.3312C60.3149 56.7984 61.3217 55.9993 61.2184 55.1658C61.1152 54.255 60.2719 54.2894 59.876 54.4097Z" fill="#24180D"/>
</svg>
