<svg width="21" height="21" viewBox="0 0 21 21" fill="none" xmlns="http://www.w3.org/2000/svg">
<path d="M20.3273 10.1636C20.3273 15.7769 15.7769 20.3273 10.1636 20.3273C4.55041 20.3273 0 15.7769 0 10.1636C0 4.55041 4.55041 0 10.1636 0C15.7769 0 20.3273 4.55041 20.3273 10.1636Z" fill="#3F6E52"/>
<path fill-rule="evenodd" clip-rule="evenodd" d="M9.00111 10.1629C9.00111 9.52198 9.52296 9.00039 10.1638 9.00039C10.805 9.00039 11.3266 9.52198 11.3266 10.1629C11.3266 10.804 10.805 11.3259 10.1638 11.3259C9.52296 11.3259 9.00111 10.804 9.00111 10.1629ZM7.10564 8.22609C7.10564 7.60778 7.60875 7.10466 8.22707 7.10466H12.1009C12.7192 7.10466 13.2223 7.60778 13.2223 8.22609V12.0999C13.2223 12.7182 12.7192 13.2213 12.1009 13.2213H8.22707C7.60875 13.2213 7.10564 12.7182 7.10564 12.0999V8.22609ZM8.15036 10.1629C8.15036 11.2733 9.05371 12.1766 10.1638 12.1766C11.2742 12.1766 12.1776 11.2733 12.1776 10.1629C12.1776 9.05273 11.2742 8.14938 10.1638 8.14938C9.05371 8.14938 8.15036 9.05273 8.15036 10.1629ZM11.7658 8.08934C11.7658 8.35206 11.9795 8.56578 12.2422 8.56578C12.505 8.56578 12.7187 8.35206 12.7187 8.08934C12.7187 7.82662 12.505 7.61291 12.2422 7.61291C11.9795 7.61291 11.7658 7.82662 11.7658 8.08934ZM12.1009 14.0721C13.1884 14.0721 14.0731 13.1875 14.0731 12.0999V8.22609C14.0731 7.13853 13.1884 6.25391 12.1009 6.25391H8.22707C7.1395 6.25391 6.25488 7.13853 6.25488 8.22609V12.0999C6.25488 13.1875 7.1395 14.0721 8.22707 14.0721H12.1009Z" fill="white"/>
</svg>
