<svg width="21" height="21" viewBox="0 0 21 21" fill="none" xmlns="http://www.w3.org/2000/svg">
<path d="M21.0001 10.1636C21.0001 15.7769 16.4497 20.3273 10.8365 20.3273C5.22327 20.3273 0.672852 15.7769 0.672852 10.1636C0.672852 4.55041 5.22327 0 10.8365 0C16.4497 0 21.0001 4.55041 21.0001 10.1636Z" fill="#3F6E52"/>
<path d="M14.7395 9.86294C14.7086 10.5931 14.5081 11.1751 14.1378 11.6087C13.7675 12.0424 13.2738 12.2592 12.6567 12.2592C12.4037 12.2592 12.18 12.2102 11.9856 12.1123C11.7912 12.0116 11.64 11.8703 11.532 11.6884C11.2296 12.0577 10.8238 12.2424 10.3147 12.2424C10.0185 12.2424 9.75928 12.1641 9.53712 12.0074C9.31495 11.8479 9.15141 11.6227 9.0465 11.3317C8.94467 11.0408 8.91382 10.7106 8.95393 10.3414C9.0465 9.64192 9.29489 9.07959 9.69911 8.65434C10.1033 8.22908 10.5986 8.01646 11.1848 8.01646C11.6384 8.01646 12.0288 8.11158 12.3558 8.30182L12.6474 8.47808L12.4114 10.9415C12.3589 11.3303 12.507 11.5248 12.8557 11.5248C13.118 11.5248 13.3371 11.3737 13.513 11.0716C13.6919 10.7666 13.7907 10.3777 13.8092 9.90491C13.8616 8.97048 13.6472 8.24867 13.1658 7.73949C12.6876 7.2303 11.9856 6.97571 11.0599 6.97571C10.4705 6.97571 9.94596 7.1128 9.4862 7.38698C9.02953 7.65835 8.66697 8.04444 8.39852 8.54523C8.13315 9.04322 7.9835 9.61115 7.94956 10.249C7.90019 11.2282 8.11618 11.9766 8.59754 12.4942C9.0789 13.0146 9.80094 13.2747 10.7637 13.2747C11.0229 13.2747 11.2975 13.2468 11.5875 13.1908C11.8776 13.1377 12.1136 13.0747 12.2957 13.002L12.4669 13.6986C12.2787 13.8105 12.0241 13.9 11.7032 13.9672C11.3854 14.0371 11.0661 14.0721 10.7451 14.0721C9.90276 14.0721 9.18998 13.9252 8.6068 13.6314C8.0267 13.3405 7.59471 12.9082 7.31083 12.3347C7.02695 11.7612 6.90044 11.066 6.9313 10.249C6.96832 9.47686 7.16426 8.78583 7.51911 8.17593C7.87704 7.56323 8.36457 7.09042 8.9817 6.75749C9.60191 6.42177 10.3008 6.25391 11.0784 6.25391C11.856 6.25391 12.5271 6.40079 13.0918 6.69454C13.6564 6.98551 14.0807 7.40516 14.3646 7.95351C14.6485 8.50186 14.7734 9.13834 14.7395 9.86294ZM10.111 10.3414C10.0771 10.7051 10.108 10.9806 10.2036 11.1681C10.3024 11.3527 10.4597 11.445 10.6757 11.445C10.8207 11.445 10.9534 11.3863 11.0738 11.2688C11.1972 11.1513 11.299 10.9834 11.3792 10.7652L11.5644 8.85157C11.4718 8.82919 11.3762 8.818 11.2774 8.818C10.9318 8.818 10.6649 8.9411 10.4767 9.1873C10.2916 9.4307 10.1697 9.81538 10.111 10.3414Z" fill="white"/>
</svg>
