<svg width="21" height="21" viewBox="0 0 21 21" fill="none" xmlns="http://www.w3.org/2000/svg">
<path d="M20.9454 10.1636C20.9454 15.7769 16.395 20.3273 10.7818 20.3273C5.16858 20.3273 0.618164 15.7769 0.618164 10.1636C0.618164 4.55041 5.16858 0 10.7818 0C16.395 0 20.9454 4.55041 20.9454 10.1636Z" fill="#3F6E52"/>
<path d="M7.56545 8.26106C7.84651 8.95512 8.2027 9.60951 8.67184 10.197C8.73406 10.2751 8.81249 10.3446 8.89512 10.4012C9.01581 10.4841 9.12968 10.455 9.17875 10.3169C9.23065 10.1721 9.27828 9.87844 9.28111 9.72631C9.28886 9.32879 9.27996 9.06827 9.2586 8.67124C9.24475 8.41695 9.15435 8.19366 8.7803 8.12627C8.66479 8.10537 8.65406 8.01029 8.72827 7.91544C8.88277 7.71796 9.098 7.68649 9.3314 7.67404C9.70967 7.65361 10.0893 7.67028 10.4681 7.67404C10.6223 7.67545 10.7775 7.68788 10.9295 7.721C11.1276 7.76421 11.2338 7.90321 11.2664 8.09667C11.2833 8.19647 11.292 8.29906 11.2896 8.40004C11.2798 8.83395 11.2589 9.26762 11.254 9.7013C11.2518 9.87152 11.2643 10.046 11.3007 10.2118C11.3516 10.4428 11.5089 10.5008 11.6698 10.3339C11.8741 10.1219 12.0542 9.88328 12.2232 9.64098C12.5303 9.20025 12.7597 8.71658 12.9572 8.21788C13.0593 7.96055 13.1375 7.90466 13.4143 7.90396C13.9346 7.90278 14.455 7.90231 14.9753 7.90396C15.0676 7.90442 15.1641 7.91312 15.2512 7.94084C15.3925 7.98592 15.4486 8.1012 15.4155 8.24749C15.3383 8.59031 15.153 8.88168 14.9546 9.16181C14.6362 9.61121 14.3026 10.0498 13.9767 10.4941C13.9351 10.5506 13.8985 10.611 13.8645 10.6723C13.7426 10.8925 13.751 11.016 13.9288 11.1994C14.2117 11.4912 14.5146 11.7643 14.7886 12.0641C14.9877 12.2823 15.172 12.5189 15.3298 12.768C15.5294 13.0831 15.4061 13.3799 15.0333 13.4327C14.7987 13.4659 13.653 13.433 13.5937 13.4327C13.2857 13.4314 13.0157 13.3245 12.7982 13.1153C12.5564 12.8824 12.3366 12.6269 12.1044 12.3839C12.0344 12.3106 11.9598 12.2404 11.8792 12.1791C11.6893 12.0343 11.5028 12.0664 11.4141 12.2895C11.3383 12.4811 11.2727 12.9843 11.2697 13.0272C11.2537 13.2519 11.1107 13.3952 10.859 13.409C10.1323 13.4485 9.42813 13.3675 8.77212 13.016C8.21611 12.7182 7.77211 12.2973 7.38751 11.8063C6.77656 11.0265 6.29399 10.1693 5.85342 9.28695C5.8309 9.24184 5.38467 8.2923 5.37268 8.24744C5.33282 8.09727 5.37 7.95381 5.49689 7.90442C5.57599 7.87365 7.04724 7.90432 7.07172 7.90563C7.30648 7.91835 7.46656 8.01739 7.56545 8.26106Z" fill="white"/>
</svg>
